<svg width="190" height="96" viewBox="0 0 190 96" fill="none" xmlns="http://www.w3.org/2000/svg">
    <path
        d="M42.4293 1.54336C44.7079 0.558481 47.2921 0.558481 49.5707 1.54336L75.1071 12.5808C77.2969 13.5272 79.0213 15.3043 79.9015 17.5216L90.6819 44.6795C91.5285 46.8122 91.5285 49.1878 90.6819 51.3205L79.9014 78.4784C79.0213 80.6957 77.2969 82.4728 75.1071 83.4192L49.5707 94.4566C47.2921 95.4415 44.7079 95.4415 42.4293 94.4566L16.8929 83.4192C14.7031 82.4728 12.9787 80.6957 12.0986 78.4784L1.3181 51.3205C0.471498 49.1878 0.471499 46.8122 1.31811 44.6795L12.0986 17.5216C12.9787 15.3043 14.7031 13.5272 16.8929 12.5808L42.4293 1.54336Z"
        fill="#1D2021" />
    <path
        d="M53.32 47.816C55.208 48.168 56.76 49.112 57.976 50.648C59.192 52.184 59.8 53.944 59.8 55.928C59.8 57.72 59.352 59.304 58.456 60.68C57.592 62.024 56.328 63.08 54.664 63.848C53 64.616 51.032 65 48.76 65H34.312V31.496H48.136C50.408 31.496 52.36 31.864 53.992 32.6C55.656 33.336 56.904 34.36 57.736 35.672C58.6 36.984 59.032 38.472 59.032 40.136C59.032 42.088 58.504 43.72 57.448 45.032C56.424 46.344 55.048 47.272 53.32 47.816ZM41.032 45.32H47.176C48.776 45.32 50.008 44.968 50.872 44.264C51.736 43.528 52.168 42.488 52.168 41.144C52.168 39.8 51.736 38.76 50.872 38.024C50.008 37.288 48.776 36.92 47.176 36.92H41.032V45.32ZM47.8 59.528C49.432 59.528 50.696 59.144 51.592 58.376C52.52 57.608 52.984 56.52 52.984 55.112C52.984 53.672 52.504 52.552 51.544 51.752C50.584 50.92 49.288 50.504 47.656 50.504H41.032V59.528H47.8ZM68.1318 65.336C66.9158 65.336 65.9078 64.968 65.1078 64.232C64.3398 63.464 63.9558 62.52 63.9558 61.4C63.9558 60.28 64.3398 59.352 65.1078 58.616C65.9078 57.848 66.9158 57.464 68.1318 57.464C69.3158 57.464 70.2918 57.848 71.0598 58.616C71.8278 59.352 72.2118 60.28 72.2118 61.4C72.2118 62.52 71.8278 63.464 71.0598 64.232C70.2918 64.968 69.3158 65.336 68.1318 65.336Z"
        fill="#822929" />
    <path
        d="M50.32 45.816C52.208 46.168 53.76 47.112 54.976 48.648C56.192 50.184 56.8 51.944 56.8 53.928C56.8 55.72 56.352 57.304 55.456 58.68C54.592 60.024 53.328 61.08 51.664 61.848C50 62.616 48.032 63 45.76 63H31.312V29.496H45.136C47.408 29.496 49.36 29.864 50.992 30.6C52.656 31.336 53.904 32.36 54.736 33.672C55.6 34.984 56.032 36.472 56.032 38.136C56.032 40.088 55.504 41.72 54.448 43.032C53.424 44.344 52.048 45.272 50.32 45.816ZM38.032 43.32H44.176C45.776 43.32 47.008 42.968 47.872 42.264C48.736 41.528 49.168 40.488 49.168 39.144C49.168 37.8 48.736 36.76 47.872 36.024C47.008 35.288 45.776 34.92 44.176 34.92H38.032V43.32ZM44.8 57.528C46.432 57.528 47.696 57.144 48.592 56.376C49.52 55.608 49.984 54.52 49.984 53.112C49.984 51.672 49.504 50.552 48.544 49.752C47.584 48.92 46.288 48.504 44.656 48.504H38.032V57.528H44.8ZM65.1318 63.336C63.9158 63.336 62.9078 62.968 62.1078 62.232C61.3398 61.464 60.9558 60.52 60.9558 59.4C60.9558 58.28 61.3398 57.352 62.1078 56.616C62.9078 55.848 63.9158 55.464 65.1318 55.464C66.3158 55.464 67.2918 55.848 68.0598 56.616C68.8278 57.352 69.2118 58.28 69.2118 59.4C69.2118 60.52 68.8278 61.464 68.0598 62.232C67.2918 62.968 66.3158 63.336 65.1318 63.336Z"
        fill="#F59E0B" />
</svg>