<svg width="40" height="36" viewBox="0 0 40 36" fill="none" xmlns="http://www.w3.org/2000/svg">
<path d="M0.0340909 35V0.0909081H14.0114C16.5795 0.0909081 18.7216 0.47159 20.4375 1.23295C22.1534 1.99432 23.4432 3.05114 24.3068 4.40341C25.1705 5.74432 25.6023 7.28977 25.6023 9.03977C25.6023 10.4034 25.3295 11.6023 24.7841 12.6364C24.2386 13.6591 23.4886 14.5 22.5341 15.1591C21.5909 15.8068 20.5114 16.267 19.2955 16.5398V16.8807C20.625 16.9375 21.8693 17.3125 23.0284 18.0057C24.1989 18.6989 25.1477 19.6705 25.875 20.9205C26.6023 22.1591 26.9659 23.6364 26.9659 25.3523C26.9659 27.2045 26.5057 28.858 25.5852 30.3125C24.6761 31.7557 23.3295 32.8977 21.5455 33.7386C19.7614 34.5795 17.5625 35 14.9489 35H0.0340909ZM7.41477 28.9659H13.4318C15.4886 28.9659 16.9886 28.5739 17.9318 27.7898C18.875 26.9943 19.3466 25.9375 19.3466 24.6193C19.3466 23.6534 19.1136 22.8011 18.6477 22.0625C18.1818 21.3239 17.517 20.7443 16.6534 20.3239C15.8011 19.9034 14.7841 19.6932 13.6023 19.6932H7.41477V28.9659ZM7.41477 14.6989H12.8864C13.8977 14.6989 14.7955 14.5227 15.5795 14.1705C16.375 13.8068 17 13.2955 17.4545 12.6364C17.9205 11.9773 18.1534 11.1875 18.1534 10.267C18.1534 9.00568 17.7045 7.98864 16.8068 7.21591C15.9205 6.44318 14.6591 6.05682 13.0227 6.05682H7.41477V14.6989ZM35.8764 35.4432C34.7514 35.4432 33.7855 35.0455 32.9787 34.25C32.1832 33.4432 31.7855 32.4773 31.7855 31.3523C31.7855 30.2386 32.1832 29.2841 32.9787 28.4886C33.7855 27.6932 34.7514 27.2955 35.8764 27.2955C36.9673 27.2955 37.9219 27.6932 38.7401 28.4886C39.5582 29.2841 39.9673 30.2386 39.9673 31.3523C39.9673 32.1023 39.7741 32.7898 39.3878 33.4148C39.0128 34.0284 38.5185 34.5227 37.9048 34.8977C37.2912 35.2614 36.6151 35.4432 35.8764 35.4432Z" fill="#F59E0B"/>
</svg>
